# xmcd CD database file
#
# Track frame offsets:
#	150
#	33118
#	64939
#	90176
#	120439
#	148980
#
# Disc length: 2436 seconds
#
# Revision: 0
# Processed by: cddbd v1.5.1PL0 Copyright (c) Steve Scherf et al.
# Submitted via: CDex 1.51
#
DISCID=47098206
DTITLE=Donald Byrd - The Cat Walk
DYEAR=1900
DGENRE=Jazz
TTITLE0=Say You're Mine
TTITLE1=Duke's Mixture
TTITLE2=Each Time I Think Of You
TTITLE3=The Cat Walk
TTITLE4=Cute
TTITLE5=Hello Bright Sunflower
EXTD=
EXTT0=
EXTT1=
EXTT2=
EXTT3=
EXTT4=
EXTT5=
PLAYORDER=
